<svg width="200" height="200" viewBox="0 0 200 200" fill="none" xmlns="http://www.w3.org/2000/svg">
<circle cx="100" cy="100" r="100" fill="#F9F9F9"/>
<path d="M71.1514 141.793L117.347 116.157L123.08 112.974L145.151 100.73C145.408 100.588 145.623 100.379 145.772 100.126C145.921 99.8731 146 99.5845 146 99.2906C146 98.9966 145.921 98.7081 145.772 98.4549C145.623 98.2017 145.408 97.9932 145.151 97.851L71.1513 56.7745C70.8026 56.5807 70.3954 56.5203 70.0055 56.6044C69.6155 56.6885 69.2695 56.9115 69.0316 57.2317C68.8786 57.4371 65.2185 62.3857 61.5178 70.043C58.0883 77.1325 54 87.9636 54 99.2828C54 105.53 55.304 115.675 61.5178 128.525C65.2185 136.188 68.8786 141.13 69.0317 141.336C69.2695 141.656 69.6156 141.879 70.0055 141.963C70.3954 142.047 70.8027 141.987 71.1514 141.793ZM123.324 109.062C122.766 107.584 121.896 106.243 120.773 105.131C119.651 104.019 118.302 103.162 116.818 102.618C115.335 102.074 113.751 101.855 112.176 101.978C110.601 102.1 109.07 102.56 107.688 103.327C106.307 104.094 105.106 105.149 104.169 106.421C103.232 107.693 102.579 109.152 102.256 110.699C101.933 112.246 101.946 113.844 102.296 115.385C102.646 116.926 103.323 118.373 104.282 119.629L80.6803 132.737C76.1328 125.144 68.5996 112.507 68.5996 99.2828C68.5996 86.0589 76.1328 73.4221 80.6803 65.8287L140.958 99.2848L123.324 109.062ZM114.024 114.222L107.2 118.008C106.448 117.14 105.898 116.116 105.592 115.009C105.286 113.903 105.231 112.742 105.431 111.611C105.63 110.481 106.08 109.409 106.747 108.474C107.413 107.54 108.28 106.766 109.284 106.208C110.288 105.651 111.403 105.325 112.549 105.254C113.695 105.183 114.842 105.369 115.907 105.798C116.972 106.227 117.928 106.888 118.705 107.733C119.482 108.578 120.061 109.586 120.399 110.683L114.024 114.222ZM70.8568 138.193C67.8032 133.682 57.2939 116.88 57.2939 99.2828C57.2939 81.6858 67.7955 64.8851 70.8568 60.3725L77.805 64.2283C73.0695 72.1258 65.3057 85.2064 65.3057 99.2828C65.3057 113.359 73.0695 126.44 77.7991 134.337L70.8568 138.193Z" fill="#0D6A36"/>
<path d="M90.3462 100.923C92.7934 100.923 95.1857 100.198 97.2205 98.8381C99.2553 97.4785 100.841 95.5461 101.778 93.2852C102.714 91.0242 102.959 88.5364 102.482 86.1362C102.004 83.736 100.826 81.5313 99.0955 79.8009C97.365 78.0704 95.1603 76.892 92.7601 76.4146C90.3599 75.9371 87.8721 76.1822 85.6112 77.1187C83.3502 78.0552 81.4178 79.6411 80.0582 81.6759C78.6986 83.7107 77.9729 86.1029 77.9729 88.5501C77.9765 91.8306 79.2813 94.9757 81.6009 97.2954C83.9206 99.615 87.0657 100.92 90.3462 100.923ZM90.3462 97.6295C88.5504 97.6299 86.7948 97.0977 85.3014 96.1003C83.8081 95.1029 82.644 93.685 81.9565 92.026C81.269 90.367 81.0889 88.5414 81.4391 86.78C81.7892 85.0186 82.6537 83.4006 83.9235 82.1307C85.1932 80.8607 86.811 79.9958 88.5723 79.6453C90.3336 79.2948 92.1592 79.4745 93.8184 80.1616C95.4776 80.8488 96.8957 82.0125 97.8934 83.5056C98.8912 84.9988 99.4237 86.7543 99.4237 88.5501C99.4212 90.957 98.464 93.2646 96.7623 94.9667C95.0605 96.6688 92.7531 97.6265 90.3462 97.6295Z" fill="#0D6A36"/>
<path d="M88.4098 111.311C87.0182 111.311 85.6577 111.723 84.5005 112.496C83.3432 113.269 82.4412 114.368 81.9085 115.654C81.3757 116.939 81.2363 118.354 81.5076 119.719C81.779 121.084 82.4491 122.337 83.4332 123.321C84.4172 124.306 85.6709 124.976 87.0358 125.247C88.4007 125.518 89.8155 125.379 91.1011 124.846C92.3867 124.313 93.4855 123.411 94.2584 122.254C95.0313 121.097 95.4436 119.736 95.4432 118.345C95.4407 116.48 94.6988 114.693 93.3804 113.374C92.0619 112.056 90.2744 111.314 88.4098 111.311ZM88.4098 114.605C89.1499 114.605 89.8733 114.825 90.4887 115.236C91.104 115.647 91.5835 116.232 91.8667 116.915C92.1498 117.599 92.2238 118.352 92.0793 119.077C91.9347 119.803 91.5782 120.47 91.0548 120.993C90.5313 121.516 89.8645 121.872 89.1386 122.017C88.4127 122.161 87.6603 122.086 86.9767 121.803C86.2931 121.519 85.7089 121.04 85.298 120.424C84.8871 119.808 84.668 119.085 84.6684 118.345C84.6694 117.353 85.064 116.402 85.7655 115.701C86.467 115 87.418 114.606 88.4098 114.605Z" fill="#0D6A36"/>
<path d="M113.287 89.3496C113.352 89.1433 113.457 88.952 113.596 88.7864C113.736 88.6209 113.906 88.4844 114.098 88.3847C114.29 88.285 114.5 88.2241 114.715 88.2055C114.931 88.1869 115.148 88.2109 115.354 88.2761C115.56 88.3414 115.752 88.4467 115.917 88.5859C116.083 88.7251 116.219 88.8955 116.319 89.0875C116.419 89.2795 116.48 89.4892 116.498 89.7047C116.517 89.9202 116.493 90.1373 116.428 90.3435C116.074 91.4679 116.18 92.6865 116.723 93.7327C117.266 94.7789 118.201 95.5674 119.324 95.9256C119.53 95.991 119.722 96.0964 119.887 96.2357C120.053 96.3751 120.189 96.5456 120.289 96.7377C120.388 96.9298 120.449 97.1396 120.468 97.3551C120.486 97.5707 120.462 97.7878 120.397 97.994C120.331 98.2002 120.226 98.3915 120.087 98.557C119.947 98.7225 119.777 98.859 119.585 98.9586C119.392 99.0582 119.183 99.1189 118.967 99.1374C118.752 99.1559 118.534 99.1318 118.328 99.0664C116.373 98.4442 114.744 97.0719 113.799 95.2503C112.853 93.4287 112.669 91.3067 113.287 89.3496Z" fill="#0D6A36"/>
<path d="M83.3678 86.2612C83.4221 86.0895 83.5422 85.9465 83.7019 85.8635C83.8616 85.7804 84.0478 85.7642 84.2194 85.8185C84.391 85.8727 84.5341 85.9928 84.6171 86.1525C84.7002 86.3122 84.7164 86.4984 84.6621 86.67C84.1878 88.1711 84.3284 89.799 85.0531 91.1965C85.7778 92.594 87.0274 93.6468 88.5276 94.1239C88.6992 94.1781 88.8423 94.2983 88.9253 94.458C89.0083 94.6177 89.0245 94.8038 88.9703 94.9755C88.9161 95.1471 88.7959 95.2902 88.6362 95.3732C88.4765 95.4562 88.2904 95.4724 88.1187 95.4182C86.2757 94.8321 84.7405 93.5388 83.8498 91.8221C82.9592 90.1054 82.7858 88.1055 83.3678 86.2612Z" fill="#0D6A36"/>
<path d="M106.878 111.096C107.582 109.444 108.913 108.139 110.578 107.467C112.244 106.795 114.108 106.811 115.762 107.511C115.884 107.563 115.988 107.65 116.062 107.761C116.135 107.872 116.174 108.002 116.174 108.135C116.174 108.247 116.146 108.358 116.093 108.456C116.04 108.555 115.964 108.639 115.87 108.701C115.777 108.763 115.669 108.8 115.558 108.81C115.446 108.821 115.334 108.803 115.231 108.759C113.909 108.199 112.419 108.185 111.087 108.722C109.755 109.258 108.69 110.301 108.126 111.621C108.092 111.705 108.042 111.781 107.978 111.845C107.915 111.909 107.839 111.96 107.756 111.994C107.673 112.029 107.584 112.046 107.493 112.046C107.403 112.045 107.314 112.027 107.231 111.992C107.148 111.956 107.073 111.905 107.01 111.84C106.947 111.776 106.898 111.699 106.865 111.615C106.832 111.531 106.816 111.441 106.819 111.351C106.821 111.261 106.841 111.172 106.878 111.09L106.878 111.096Z" fill="#0D6A36"/>
<path d="M84.6666 107.705C84.6668 107.862 84.644 108.018 84.5988 108.168C84.5383 108.376 84.4374 108.569 84.302 108.738C84.1666 108.906 83.9992 109.047 83.8095 109.15C83.6199 109.254 83.4116 109.32 83.1966 109.343C82.9816 109.366 82.7641 109.347 82.5566 109.286C81.7715 109.059 80.9282 109.152 80.2119 109.546C79.4956 109.94 78.9648 110.602 78.7358 111.386C78.6752 111.594 78.5744 111.788 78.439 111.956C78.3036 112.125 78.1363 112.265 77.9466 112.369C77.757 112.473 77.5487 112.539 77.3337 112.562C77.1187 112.586 76.9012 112.567 76.6936 112.506C76.486 112.446 76.2923 112.345 76.1237 112.209C75.955 112.074 75.8147 111.907 75.7107 111.717C75.6067 111.527 75.5411 111.319 75.5176 111.104C75.4941 110.889 75.5131 110.672 75.5737 110.464C76.0489 108.842 77.1485 107.474 78.631 106.662C80.1135 105.85 81.8578 105.659 83.4809 106.132C83.8217 106.231 84.1213 106.438 84.3349 106.721C84.5486 107.005 84.665 107.35 84.6666 107.705Z" fill="#0D6A36"/>
<path opacity="0.3" d="M135.03 25.3537L134.895 29.7109L138.997 31.1857L134.811 32.4038L134.676 36.7609L132.225 33.1565L128.039 34.3746L130.709 30.9289L128.257 27.3245L132.36 28.7994L135.03 25.3537Z" fill="#0D6A36"/>
<path opacity="0.3" d="M48.2613 70.6264L48.175 74.9848L52.2934 76.4136L48.1217 77.6784L48.0354 82.0368L45.5434 78.4601L41.3716 79.7248L44.0032 76.2495L41.5113 72.6728L45.6297 74.1017L48.2613 70.6264Z" fill="#0D6A36"/>
<path opacity="0.3" d="M121.23 149.846L118.676 153.378L121.247 156.899L117.098 155.562L114.544 159.095L114.533 154.735L110.384 153.398L114.527 152.041L114.516 147.682L117.087 151.203L121.23 149.846Z" fill="#0D6A36"/>
<path opacity="0.3" d="M175.179 85.5985L175.156 89.9577L179.295 91.3269L175.141 92.6518L175.118 97.011L172.575 93.4706L168.422 94.7955L171.003 91.2826L168.459 87.7422L172.598 89.1115L175.179 85.5985Z" fill="#0D6A36"/>
<path opacity="0.3" d="M36.5262 144.972L39.6343 148.028L43.5018 146.017L41.5553 149.917L44.6635 152.974L40.3523 152.328L38.4059 156.228L37.6879 151.929L33.3767 151.283L37.2441 149.271L36.5262 144.972Z" fill="#0D6A36"/>
<circle opacity="0.3" cx="20.5" cy="59.5" r="2.5" fill="#0D6A36"/>
<circle opacity="0.3" cx="110.5" cy="21.5" r="2.5" fill="#0D6A36"/>
<circle opacity="0.3" cx="131.5" cy="120.5" r="2.5" fill="#0D6A36"/>
<circle opacity="0.3" cx="146" cy="74" r="2" fill="#0D6A36"/>
<circle opacity="0.3" cx="151.5" cy="157.5" r="1.5" fill="#0D6A36"/>
<circle opacity="0.3" cx="112.5" cy="71.5" r="1.5" fill="#0D6A36"/>
<circle opacity="0.3" cx="87.5" cy="173.5" r="1.5" fill="#0D6A36"/>
<circle opacity="0.3" cx="175.5" cy="129.5" r="2.5" fill="#0D6A36"/>
<circle opacity="0.3" cx="22.5" cy="118.5" r="2.5" fill="#0D6A36"/>
<path opacity="0.3" d="M74.8507 48.4477L76.3456 53.2936L71.7447 52.4565L74.8507 48.4477Z" fill="#0D6A36"/>
<path opacity="0.3" d="M176.11 45.884L177.78 54.1694L170.29 52.0133L176.11 45.884Z" fill="#0D6A36"/>
<path opacity="0.3" d="M64.4464 175.348L61.4708 183.259L56.2626 177.46L64.4464 175.348Z" fill="#0D6A36"/>
<path opacity="0.3" d="M84.0453 149.914L85.1331 155.729L79.9117 154.147L84.0453 149.914Z" fill="#0D6A36"/>
<path opacity="0.3" d="M124.773 181.493L129.664 184.823L124.861 187.409L124.773 181.493Z" fill="#0D6A36"/>
<path opacity="0.3" d="M153.773 109.493L158.664 112.823L153.861 115.409L153.773 109.493Z" fill="#0D6A36"/>
<path opacity="0.3" d="M68.9538 17.0135L75.2568 22.6445L67.9689 25.408L68.9538 17.0135Z" fill="#0D6A36"/>
</svg>
